<svg xmlns="http://www.w3.org/2000/svg" width="218.856" height="28.683" viewBox="0 0 218.856 28.683" class="main-nav-logo-full"><g id="Group_530" data-name="Group 530" transform="translate(-50 -31)"><path id="Union_2" class="svg-text" data-name="Union 2" d="M105.725,21.7a6.606,6.606,0,0,1-1.912-1.415v1.573H97.631v-.544l.035-5.87-.013-4.187-.023-5.917h6.2l-.049,4.574a6.835,6.835,0,0,1,1.905-1.2,5.436,5.436,0,0,1,2.052-.4,6.184,6.184,0,0,1,4.271,1.731,6.532,6.532,0,0,1,2.143,5.07,7.009,7.009,0,0,1-2.2,5.311,5.794,5.794,0,0,1-4.1,1.7A5.061,5.061,0,0,1,105.725,21.7Zm.17-11.685a2.262,2.262,0,0,0-2.118,2.229v5.822a2.289,2.289,0,0,0,2.175,2.253c.051,0,.1,0,.153,0,1.978,0,3.163-2.719,3.163-5.1s-.341-5.21-3.2-5.21C106.011,10.01,105.953,10.011,105.9,10.015ZM81.419,22.05a6.922,6.922,0,0,1-2.566-.9,6.844,6.844,0,0,1-2.9-3.306,6.729,6.729,0,0,1-.518-3.457,7.182,7.182,0,0,1,.963-2.87A6.561,6.561,0,0,1,80.869,8.28a7.08,7.08,0,0,1,5.075.777A7,7,0,0,1,88.619,11.9a6.584,6.584,0,0,1,.754,3.637,7.227,7.227,0,0,1-1,3.193,6.7,6.7,0,0,1-1.59,1.816,7.158,7.158,0,0,1-2.125,1.2,6.787,6.787,0,0,1-2.226.376A7.114,7.114,0,0,1,81.419,22.05Zm.362-9.695a2.65,2.65,0,0,0-1.8,1.307,2.891,2.891,0,0,0-.388,1.157,2.714,2.714,0,0,0,.209,1.394,2.829,2.829,0,0,0,3.512,1.572,2.866,2.866,0,0,0,.857-.484,2.661,2.661,0,0,0,.641-.732,2.917,2.917,0,0,0,.4-1.287,2.655,2.655,0,0,0-.3-1.466,2.777,2.777,0,0,0-2.49-1.526A3.207,3.207,0,0,0,81.781,12.356Zm69,8.715a4.282,4.282,0,0,1-1.826-3.581,3.851,3.851,0,0,1,1.478-3.145,6.49,6.49,0,0,1,4.265-1.417,8.2,8.2,0,0,1,1.841.188,9.117,9.117,0,0,1,1.829.684V12.323c-.006-1.023-.023-1.654-.048-1.887A1.4,1.4,0,0,0,158.1,9.8q-.438-.676-2.034-.676a4.786,4.786,0,0,0-3.818,1.548q-.548.63-.923.631a.683.683,0,0,1-.486-.2.6.6,0,0,1-.206-.447q0-.762,1.8-1.573a10.879,10.879,0,0,1,4.441-.774q4.476,0,6.316,1.354A2.749,2.749,0,0,1,164.233,11a9.471,9.471,0,0,1,.243,2.6v8.254h-6.123V20.587a9.622,9.622,0,0,1-2.207,1.15,6.451,6.451,0,0,1-2.16.387A5.2,5.2,0,0,1,150.777,21.071Zm5.214-7.031c-1.978,0-2.777,1.408-2.777,3.171s.368,3.371,2.813,3.371a3.4,3.4,0,0,0,2.135-.773.552.552,0,0,0,.2-.43V14.748a2.274,2.274,0,0,0-1.977-.71Zm-38.86,7.031a4.282,4.282,0,0,1-1.826-3.581,3.851,3.851,0,0,1,1.478-3.145,6.49,6.49,0,0,1,4.265-1.417,8.212,8.212,0,0,1,1.842.188,9.158,9.158,0,0,1,1.829.684V12.323c-.006-1.023-.023-1.654-.048-1.887a1.4,1.4,0,0,0-.217-.631q-.438-.676-2.035-.676a4.785,4.785,0,0,0-3.818,1.548q-.548.63-.923.631a.684.684,0,0,1-.486-.2.6.6,0,0,1-.206-.447q0-.762,1.8-1.573a10.872,10.872,0,0,1,4.441-.774q4.476,0,6.317,1.354A2.756,2.756,0,0,1,130.587,11a9.471,9.471,0,0,1,.243,2.6v8.254h-6.124V20.587a9.6,9.6,0,0,1-2.208,1.15,6.442,6.442,0,0,1-2.16.387A5.2,5.2,0,0,1,117.131,21.071Zm5.214-7.031c-1.978,0-2.777,1.408-2.777,3.171s.367,3.371,2.813,3.371a3.4,3.4,0,0,0,2.136-.773.552.552,0,0,0,.2-.43V14.748a2.275,2.275,0,0,0-1.978-.71ZM19.9,20.964a4.285,4.285,0,0,1-1.827-3.581,3.852,3.852,0,0,1,1.478-3.146,6.492,6.492,0,0,1,4.265-1.417,8.185,8.185,0,0,1,1.843.188,9.226,9.226,0,0,1,1.829.684V12.215q-.011-1.535-.048-1.888a1.4,1.4,0,0,0-.217-.629q-.437-.676-2.036-.678a4.785,4.785,0,0,0-3.819,1.549c-.364.418-.67.629-.921.629A.682.682,0,0,1,19.957,11a.6.6,0,0,1-.205-.447q0-.763,1.8-1.574A10.887,10.887,0,0,1,26,8.21q4.478,0,6.317,1.356a2.75,2.75,0,0,1,1.04,1.331,9.454,9.454,0,0,1,.243,2.6v8.252H27.472V20.48a9.582,9.582,0,0,1-2.209,1.15,6.459,6.459,0,0,1-2.159.387A5.2,5.2,0,0,1,19.9,20.964Zm5.214-7.032c-1.978,0-2.779,1.406-2.779,3.17s.369,3.373,2.814,3.373a3.392,3.392,0,0,0,2.135-.774.552.552,0,0,0,.2-.43v-4.63a2.271,2.271,0,0,0-1.974-.71Zm121.274,7.986-6.329-.06H132.2q2.456-3.256,6.3-9.415l1.609-2.565a.32.32,0,0,0-.268-.49l-.712-.007q-2.661,0-4.379.145-.363.037-.581.037c-.379,0-.569-.165-.569-.5a.531.531,0,0,1,.152-.442.963.963,0,0,1,.551-.115l.423.012,7.684.122h5.845l-6.868,10.467-1,1.6a.216.216,0,0,0,.186.326h1.156q2.527,0,5.042-.229c.226-.017.4-.025.532-.025q.606,0,.6.582t-.8.568Zm26.342-.06h-5.455l0-.178V8.83l0-.187h6.208v2.493a17.2,17.2,0,0,1,1.932-1.864,4.176,4.176,0,0,1,2.367-.883,1.988,1.988,0,0,1,1.117.291.859.859,0,0,1,.441.744.774.774,0,0,1-.275.583.979.979,0,0,1-.655.222,1.375,1.375,0,0,1-.568-.145,2.162,2.162,0,0,0-.882-.254,2.806,2.806,0,0,0-1.679.592c-.039.029-.077.059-.117.089a4.563,4.563,0,0,0-1.7,3.565l-.015,2.965.048,4.817Zm-102.4-.337H64.874l0-.178V8.493l0-.187h6.208V10.8a17.066,17.066,0,0,1,1.932-1.863,4.174,4.174,0,0,1,2.367-.883,1.988,1.988,0,0,1,1.117.29.859.859,0,0,1,.44.744.773.773,0,0,1-.274.583.98.98,0,0,1-.656.222,1.38,1.38,0,0,1-.568-.145,2.157,2.157,0,0,0-.882-.254,2.805,2.805,0,0,0-1.678.593c-.038.029-.078.058-.117.089a4.559,4.559,0,0,0-1.7,3.565L71.045,16.7l.048,4.816Zm-14.312,0,.048-3.824.06-3.848-.012-1.562c-.009-.572-.009-.907,0-1a2.714,2.714,0,0,0-.206-1.319.837.837,0,0,0-.786-.362,3.058,3.058,0,0,0-1.325.35l-.038.02A2.651,2.651,0,0,0,52.3,12.348v9.173H46.1l.029-2.637.044-5.688a30.234,30.234,0,0,0-.073-3.1q-.133-.52-.872-.52a2.875,2.875,0,0,0-1.252.345l-.013.007a2.824,2.824,0,0,0-1.543,2.5v9.088H36.242v-.484l.025-2.2.012-3,.012-2.9-.048-4.622h6.2V10a10.824,10.824,0,0,1,2.705-1.518,7.657,7.657,0,0,1,2.692-.5A4.956,4.956,0,0,1,51.09,9a3.355,3.355,0,0,1,.884,1.27,12.429,12.429,0,0,1,2.934-1.748,7.745,7.745,0,0,1,2.874-.538,4.156,4.156,0,0,1,3.86,1.779,3.609,3.609,0,0,1,.435,1.229,10.35,10.35,0,0,1,.115,1.513v9.02Zm-46.082,0,.049-7.479-.073-3.824c-.08-.418-.378-.629-.893-.629a2.946,2.946,0,0,0-1.273.345l-.013.007a2.828,2.828,0,0,0-1.56,2.521l-.013,1.557L6.2,19.282l.032,2.238H.012l.024-5.107V10.593L0,5.56.012,5H6.183v.339L6.2,7.411,6.183,8.694v1.319a16.982,16.982,0,0,1,1.9-1.15,8.163,8.163,0,0,1,3.594-.883,5.6,5.6,0,0,1,2.311.46A3.33,3.33,0,0,1,15.513,9.7a7.239,7.239,0,0,1,.593,3.509l-.024,1.8-.024,2.383.1,4.127ZM88.527,10.359a1.075,1.075,0,0,1-.2-.634.669.669,0,0,1,.232-.514L92.44,5.863l.252-.2A1.433,1.433,0,0,1,94.344,8l-.275.169-4.45,2.549a.605.605,0,0,1-.321.088A.988.988,0,0,1,88.527,10.359ZM86.383,8.337a1.071,1.071,0,0,1-.447-.494.669.669,0,0,1,0-.565L88.1,2.631l.146-.288A1.433,1.433,0,0,1,90.717,3.8l-.181.268L87.525,8.213a.694.694,0,0,1-.591.28A1.1,1.1,0,0,1,86.383,8.337Zm-2.81-.894a.854.854,0,0,1-.842-.782L82.8,1.534l.015-.323a1.433,1.433,0,0,1,2.846.311l-.055.318L84.565,6.861a.668.668,0,0,1-.338.453,1.032,1.032,0,0,1-.524.136A1.186,1.186,0,0,1,83.573,7.443Z" transform="translate(89.02 34)" fill="#333333" stroke="rgba(0,0,0,0)" stroke-miterlimit="10" stroke-width="1"></path><g id="Group_529" data-name="Group 529"><path id="Path_1" data-name="Path 1" d="M114.828,94.262H96.815a5.335,5.335,0,0,1-5.335-5.335V70.914a5.335,5.335,0,0,1,5.335-5.335h18.013a5.335,5.335,0,0,1,5.335,5.335V88.927a5.335,5.335,0,0,1-5.335,5.335" transform="translate(-41.48 -34.579)" fill="#333333"></path><path id="Union_1" data-name="Union 1" d="M5.22,19.417a5.831,5.831,0,0,1-2.206-.77A5.971,5.971,0,0,1,.5,15.762a6.064,6.064,0,0,1-.47-3.037,6.426,6.426,0,0,1,.8-2.532A5.637,5.637,0,0,1,4.645,7.309,5.931,5.931,0,0,1,9,7.953a6.1,6.1,0,0,1,2.314,2.481,5.92,5.92,0,0,1,.673,3.193,6.475,6.475,0,0,1-.828,2.817,5.852,5.852,0,0,1-1.349,1.609A6.106,6.106,0,0,1,8,19.126a5.692,5.692,0,0,1-1.958.348A5.955,5.955,0,0,1,5.22,19.417Zm.236-8.53A2.273,2.273,0,0,0,3.92,12.05,2.6,2.6,0,0,0,3.6,13.071a2.44,2.44,0,0,0,.189,1.224A2.41,2.41,0,0,0,4.8,15.458a2.331,2.331,0,0,0,.889.31,2.3,2.3,0,0,0,1.119-.117,2.459,2.459,0,0,0,.73-.433,2.333,2.333,0,0,0,.544-.649,2.606,2.606,0,0,0,.334-1.134,2.384,2.384,0,0,0-.271-1.288,2.462,2.462,0,0,0-.933-1,2.358,2.358,0,0,0-1.19-.323A2.664,2.664,0,0,0,5.456,10.887Zm5.767-1.808a.951.951,0,0,1-.18-.556.6.6,0,0,1,.194-.455l3.3-2.974.214-.18a1.209,1.209,0,0,1,1.667.319,1.285,1.285,0,0,1-.233,1.725l-.234.151L12.162,9.384a.514.514,0,0,1-.28.08A.842.842,0,0,1,11.223,9.079ZM9.369,7.317a.939.939,0,0,1-.387-.432.6.6,0,0,1,0-.5l1.823-4.1.123-.255a1.212,1.212,0,0,1,1.649-.411,1.279,1.279,0,0,1,.477,1.67l-.153.237L10.348,7.2a.592.592,0,0,1-.512.251A.926.926,0,0,1,9.369,7.317ZM6.956,6.552a.741.741,0,0,1-.728-.681l.02-4.511.01-.284A1.237,1.237,0,0,1,7.6.006,1.251,1.251,0,0,1,8.7,1.329l-.045.28L7.8,6.033a.588.588,0,0,1-.286.4.878.878,0,0,1-.458.124A.982.982,0,0,1,6.956,6.552Z" transform="translate(56.014 35.302)" fill="white" stroke="rgba(0,0,0,0)" stroke-miterlimit="10" stroke-width="1"></path></g></g></svg>