<svg xmlns="http://www.w3.org/2000/svg" width="140.072" height="92.726" viewBox="0 0 140.072 92.726"><g id="Group_3851" data-name="Group 3851" transform="translate(-1006.516 -234.182)" opacity="0.15"><g id="Group_3850" data-name="Group 3850"><g id="Group_3831" data-name="Group 3831"><g id="Group_3830" data-name="Group 3830"><path id="Path_1217" data-name="Path 1217" d="M1146.585,320.865c0,3.339-2.966,6.043-6.627,6.043h-17.673c-3.66,0-6.627-2.7-6.627-6.043,0-1.185-.566-10.357,10.7-17.545l-2.632-4.343a1.933,1.933,0,0,1,1.607-3.006h11.593a1.934,1.934,0,0,1,1.608,3.006l-2.643,4.343C1147.086,310.473,1146.585,319.7,1146.585,320.865Zm-1.929-.181c.046-3.628-1.231-10.486-10.207-16.012H1127.8c-9,5.536-10.262,12.374-10.205,15.989v.2a4.435,4.435,0,0,0,4.694,4.109h17.677c2.588,0,4.694-1.843,4.694-4.109Zm-16.367-17.946h5.664l2.969-4.833h-11.593Zm6.7,14.832a2.924,2.924,0,0,1-2.814,2.933v1.047a.527.527,0,0,1-.525.521h-1.054a.526.526,0,0,1-.525-.521v-1.06a4.5,4.5,0,0,1-2.065-.735.517.517,0,0,1-.039-.785l.776-.731a.635.635,0,0,1,.361-.138.652.652,0,0,1,.3.093,1.859,1.859,0,0,0,.841.242h1.849a.821.821,0,0,0,.777-.859.837.837,0,0,0-.58-.825l-2.96-.879a2.949,2.949,0,0,1-2.077-2.825,2.914,2.914,0,0,1,2.807-2.935V309.06a.526.526,0,0,1,.525-.521h1.053a.527.527,0,0,1,.525.521v1.063a4.486,4.486,0,0,1,2.064.735.579.579,0,0,1,.2.41.586.586,0,0,1-.162.375l-.77.735a.615.615,0,0,1-.361.141.628.628,0,0,1-.3-.1,1.937,1.937,0,0,0-.841-.242h-1.847a.821.821,0,0,0-.776.859.841.841,0,0,0,.579.828l2.96.879A2.944,2.944,0,0,1,1134.987,317.57Z" fill="var(--black33)"></path></g></g><g id="Group_3833" data-name="Group 3833"><g id="Group_3832" data-name="Group 3832"><path id="Path_1218" data-name="Path 1218" d="M1045.771,305.571l-3.256.982v13.9a2.093,2.093,0,0,1-1.513,2.04l-13.524,3.557a3.807,3.807,0,0,1-1.94,0l-13.512-3.557a2.082,2.082,0,0,1-1.513-2.04v-13.9l-3.256-.982a1.086,1.086,0,0,1-.631-1.512l3.216-6.762a1.032,1.032,0,0,1,.914-.592c.04,0,15.762,2.105,15.762,2.105s15.721-2.105,15.761-2.105a1.023,1.023,0,0,1,.914.592l3.216,6.762A1.089,1.089,0,0,1,1045.771,305.571Zm-36.824-1.677,10.519,3.166,3.756-6.567-11.9-1.6Zm3.572,16.557,13,3.421V300.558l-4.73,8.256a1,1,0,0,1-.874.521c-.205,0,.309.137-7.4-2.177Zm28-13.3c-7.723,2.316-7.19,2.179-7.394,2.179a1.02,1.02,0,0,1-.875-.521l-4.73-8.255v23.319l13-3.421Zm3.572-3.256-2.375-5-11.893,1.592,3.756,6.565Z" fill="var(--black33)"></path></g></g><g id="Group_3837" data-name="Group 3837"><g id="Group_3836" data-name="Group 3836"><g id="Group_3834" data-name="Group 3834"><path id="Path_1219" data-name="Path 1219" d="M1051.656,310.445a14.13,14.13,0,0,0,8.434,4.01,31.206,31.206,0,0,0,10.407-.061c3.07-.606,6.168-2.441,7.13-5.594a5.341,5.341,0,0,0-3.321-6.612c-2.841-.835-5.187,1.61-6,4.1a10.382,10.382,0,0,0,1.507,8.692c3.885,5.882,11.366,7.089,17.63,4.591,3.91-1.559,6.813-4.384,9.814-7.235,3.209-3.049,7.27-6.337,12.014-5.567.832.135,1.19-1.139.351-1.275-6.5-1.054-11.228,4.015-15.532,8.039-4.611,4.31-10.948,7.5-17.341,5.31-4.994-1.711-9.677-8.238-6.613-13.433a3.611,3.611,0,0,1,3.35-2.033,3.71,3.71,0,0,1,2.914,2.767c.866,3.054-2,5.634-4.6,6.54-3.192,1.113-7.053.97-10.381.623-3.27-.341-6.529-1.334-8.831-3.792-.582-.622-1.516.314-.934.934Z" fill="var(--black33)"></path></g><g id="Group_3835" data-name="Group 3835"><path id="Path_1220" data-name="Path 1220" d="M1106.1,303.52a14.519,14.519,0,0,1,3.47,2.462l-.1-.8c-1.106,1.935-2.673,3.553-3.917,5.394-.478.706.667,1.368,1.141.667,1.245-1.841,2.811-3.459,3.917-5.394a.674.674,0,0,0-.1-.8,15.747,15.747,0,0,0-3.738-2.669c-.756-.386-1.425.754-.667,1.141Z" fill="var(--black33)"></path></g></g></g><g id="Group_3841" data-name="Group 3841"><g id="Group_3840" data-name="Group 3840"><g id="Group_3838" data-name="Group 3838"><path id="Path_1221" data-name="Path 1221" d="M1079.1,250.338a8.078,8.078,0,1,1,8.078-8.078A8.088,8.088,0,0,1,1079.1,250.338Zm0-14.1a6.018,6.018,0,1,0,6.018,6.018A6.025,6.025,0,0,0,1079.1,236.242Z" fill="var(--black33)"></path></g><g id="Group_3839" data-name="Group 3839"><path id="Path_1222" data-name="Path 1222" d="M1094.474,263.895h-2.06c0-5.264-5.972-9.547-13.313-9.547s-13.313,4.283-13.313,9.547h-2.061c0-6.4,6.9-11.608,15.374-11.608S1094.474,257.495,1094.474,263.895Z" fill="var(--black33)"></path></g></g></g><g id="Group_3845" data-name="Group 3845"><g id="Group_3844" data-name="Group 3844"><g id="Group_3842" data-name="Group 3842"><path id="Path_1223" data-name="Path 1223" d="M1131.45,284.773a28.766,28.766,0,0,0-9-17.85c-5.363-4.749-12.413-7.333-19.342-8.744-.83-.169-1.185,1.105-.351,1.275,6.591,1.342,13.327,3.728,18.492,8.172a27.347,27.347,0,0,1,8.875,17.147c.095.836,1.418.845,1.322,0Z" fill="var(--black33)"></path></g><g id="Group_3843" data-name="Group 3843"><path id="Path_1224" data-name="Path 1224" d="M1108.837,255.46l-7.109,2.362a.666.666,0,0,0-.4.97c1.567,2.159,2.832,4.52,4.4,6.678.495.682,1.642.023,1.141-.667-1.566-2.158-2.832-4.519-4.4-6.678l-.4.971,7.11-2.361c.8-.267.459-1.544-.352-1.275Z" fill="var(--black33)"></path></g></g></g><g id="Group_3849" data-name="Group 3849"><g id="Group_3848" data-name="Group 3848"><g id="Group_3846" data-name="Group 3846"><path id="Path_1225" data-name="Path 1225" d="M1056.3,255.332a28.762,28.762,0,0,0-17.85,9c-4.749,5.362-7.333,12.412-8.744,19.341-.169.831,1.1,1.186,1.275.352,1.342-6.591,3.727-13.327,8.171-18.493a27.346,27.346,0,0,1,17.148-8.875c.835-.094.845-1.417,0-1.321Z" fill="var(--black33)"></path></g><g id="Group_3847" data-name="Group 3847"><path id="Path_1226" data-name="Path 1226" d="M1026.985,277.944l2.361,7.11a.668.668,0,0,0,.971.4c2.159-1.567,4.519-2.833,6.678-4.4.682-.495.023-1.642-.667-1.142-2.159,1.567-4.519,2.833-6.678,4.4l.971.395-2.362-7.109c-.266-.8-1.543-.459-1.274.351Z" fill="var(--black33)"></path></g></g></g></g></g></svg>