<svg width="16" height="16" viewBox="0 0 16 16" fill="none" xmlns="http://www.w3.org/2000/svg"><g clip-path="url(#clip0_51_120)"><path d="M11.3334 6.66667H12.6667C14 6.66667 14.6667 6 14.6667 4.66667V3.33334C14.6667 2 14 1.33334 12.6667 1.33334H11.3334C10 1.33334 9.33337 2 9.33337 3.33334V4.66667C9.33337 6 10 6.66667 11.3334 6.66667ZM3.33337 14.6667H4.66671C6.00004 14.6667 6.66671 14 6.66671 12.6667V11.3333C6.66671 10 6.00004 9.33334 4.66671 9.33334H3.33337C2.00004 9.33334 1.33337 10 1.33337 11.3333V12.6667C1.33337 14 2.00004 14.6667 3.33337 14.6667Z" stroke="black" stroke-miterlimit="10" stroke-linecap="round" stroke-linejoin="round"></path><path opacity="0.34" d="M4.00004 6.66667C4.70728 6.66667 5.38556 6.38572 5.88566 5.88562C6.38576 5.38552 6.66671 4.70725 6.66671 4C6.66671 3.29276 6.38576 2.61448 5.88566 2.11438C5.38556 1.61429 4.70728 1.33334 4.00004 1.33334C3.2928 1.33334 2.61452 1.61429 2.11442 2.11438C1.61433 2.61448 1.33337 3.29276 1.33337 4C1.33337 4.70725 1.61433 5.38552 2.11442 5.88562C2.61452 6.38572 3.2928 6.66667 4.00004 6.66667ZM12 14.6667C12.7073 14.6667 13.3856 14.3857 13.8857 13.8856C14.3858 13.3855 14.6667 12.7072 14.6667 12C14.6667 11.2928 14.3858 10.6145 13.8857 10.1144C13.3856 9.61429 12.7073 9.33334 12 9.33334C11.2928 9.33334 10.6145 9.61429 10.1144 10.1144C9.61432 10.6145 9.33337 11.2928 9.33337 12C9.33337 12.7072 9.61432 13.3855 10.1144 13.8856C10.6145 14.3857 11.2928 14.6667 12 14.6667Z" stroke="black" stroke-miterlimit="10" stroke-linecap="round" stroke-linejoin="round"></path></g><defs><clipPath id="clip0_51_120"><rect width="16" height="16" fill="white"></rect></clipPath></defs></svg>