<svg width="16" height="16" viewBox="0 0 16 16" fill="none" xmlns="http://www.w3.org/2000/svg"><g clip-path="url(#clip0_30_121)"><path d="M7.66671 14C8.49841 14 9.32197 13.8362 10.0904 13.5179C10.8588 13.1996 11.5569 12.7331 12.1451 12.145C12.7332 11.5569 13.1997 10.8587 13.5179 10.0903C13.8362 9.32194 14 8.49838 14 7.66668C14 6.83497 13.8362 6.01141 13.5179 5.24302C13.1997 4.47462 12.7332 3.77644 12.1451 3.18833C11.5569 2.60023 10.8588 2.13372 10.0904 1.81544C9.32197 1.49716 8.49841 1.33334 7.66671 1.33334C5.987 1.33334 4.37609 2.0006 3.18836 3.18833C2.00063 4.37606 1.33337 5.98697 1.33337 7.66668C1.33337 9.34638 2.00063 10.9573 3.18836 12.145C4.37609 13.3328 5.987 14 7.66671 14V14Z" stroke="black" stroke-width="1.5" stroke-linecap="round" stroke-linejoin="round"></path><path opacity="0.4" d="M14.6667 14.6667L13.3334 13.3333" stroke="black" stroke-width="1.5" stroke-linecap="round" stroke-linejoin="round"></path></g><defs><clipPath id="clip0_30_121"><rect width="16" height="16" fill="white"></rect></clipPath></defs></svg>